<svg width="135" height="40" viewBox="0 0 135 40" fill="none" xmlns="http://www.w3.org/2000/svg">
<path d="M25.752 39H15.72L6.12 13.224C6.44 15.752 6.68 17.992 6.84 19.944C7.032 21.864 7.128 24.152 7.128 26.808V39H0.12V5.736H9.912L19.752 31.56C19.048 27.176 18.696 23.048 18.696 19.176V5.736H25.752V39ZM52.0601 31.608C52.0601 32.568 52.1881 33.272 52.4441 33.72C52.7321 34.168 53.1801 34.504 53.7881 34.728L52.2041 39.672C50.6361 39.544 49.3561 39.208 48.3641 38.664C47.3721 38.088 46.6041 37.192 46.0601 35.976C44.3961 38.536 41.8361 39.816 38.3801 39.816C35.8521 39.816 33.8361 39.08 32.3321 37.608C30.8281 36.136 30.0761 34.216 30.0761 31.848C30.0761 29.064 31.1001 26.936 33.1481 25.464C35.1961 23.992 38.1561 23.256 42.0281 23.256H44.6201V22.152C44.6201 20.648 44.3001 19.624 43.6601 19.08C43.0201 18.504 41.9001 18.216 40.3001 18.216C39.4681 18.216 38.4601 18.344 37.2761 18.6C36.0921 18.824 34.8761 19.144 33.6281 19.56L31.9001 14.568C33.5001 13.96 35.1321 13.496 36.7961 13.176C38.4921 12.856 40.0601 12.696 41.5001 12.696C45.1481 12.696 47.8201 13.448 49.5161 14.952C51.2121 16.456 52.0601 18.712 52.0601 21.72V31.608ZM40.5881 34.392C42.3161 34.392 43.6601 33.576 44.6201 31.944V27.432H42.7481C41.0201 27.432 39.7241 27.736 38.8601 28.344C38.0281 28.952 37.6121 29.896 37.6121 31.176C37.6121 32.2 37.8681 33 38.3801 33.576C38.9241 34.12 39.6601 34.392 40.5881 34.392ZM86.277 12.696C88.293 12.696 89.909 13.384 91.125 14.76C92.341 16.104 92.949 17.976 92.949 20.376V39H85.365V21.672C85.365 19.4 84.645 18.264 83.205 18.264C82.405 18.264 81.701 18.536 81.093 19.08C80.485 19.624 79.893 20.456 79.317 21.576V39H71.733V21.672C71.733 19.4 71.013 18.264 69.573 18.264C68.805 18.264 68.101 18.552 67.461 19.128C66.853 19.672 66.261 20.488 65.685 21.576V39H58.101V13.512H64.725L65.253 16.488C66.245 15.208 67.333 14.264 68.517 13.656C69.733 13.016 71.109 12.696 72.645 12.696C74.085 12.696 75.317 13.048 76.341 13.752C77.397 14.456 78.165 15.448 78.645 16.728C79.669 15.352 80.789 14.344 82.005 13.704C83.253 13.032 84.677 12.696 86.277 12.696ZM106.232 13.512V39H98.6479V13.512H106.232ZM102.392 0.0719976C103.704 0.0719976 104.776 0.487998 105.608 1.32C106.472 2.12 106.904 3.144 106.904 4.392C106.904 5.64 106.472 6.68 105.608 7.512C104.776 8.312 103.704 8.712 102.392 8.712C101.08 8.712 100.008 8.312 99.1759 7.512C98.3439 6.68 97.9279 5.64 97.9279 4.392C97.9279 3.144 98.3439 2.12 99.1759 1.32C100.008 0.487998 101.08 0.0719976 102.392 0.0719976ZM134.419 25.752C134.419 26.808 134.371 27.72 134.275 28.488H118.483C118.739 30.632 119.347 32.136 120.307 33C121.267 33.864 122.595 34.296 124.291 34.296C125.315 34.296 126.307 34.12 127.267 33.768C128.227 33.384 129.267 32.808 130.387 32.04L133.507 36.264C130.531 38.632 127.219 39.816 123.571 39.816C119.443 39.816 116.275 38.6 114.067 36.168C111.859 33.736 110.755 30.472 110.755 26.376C110.755 23.784 111.219 21.464 112.147 19.416C113.075 17.336 114.435 15.704 116.227 14.52C118.019 13.304 120.163 12.696 122.659 12.696C126.339 12.696 129.219 13.848 131.299 16.152C133.379 18.456 134.419 21.656 134.419 25.752ZM126.979 23.592C126.915 19.688 125.539 17.736 122.851 17.736C121.539 17.736 120.515 18.216 119.779 19.176C119.075 20.136 118.643 21.72 118.483 23.928H126.979V23.592Z" fill="#141414"/>
</svg>
